<svg id="wave" style="transform:rotate(180deg); transition: 0.3s" viewBox="0 0 1440 100" version="1.1" xmlns="http://www.w3.org/2000/svg"><defs><linearGradient id="sw-gradient-0" x1="0" x2="0" y1="1" y2="0"><stop stop-color="rgba(141.588, 93.425, 49.611, 1)" offset="0%"></stop><stop stop-color="rgba(21.629, 86.945, 23.887, 1)" offset="100%"></stop></linearGradient></defs><path style="transform:translate(0, 0px); opacity:1" fill="url(#sw-gradient-0)" d="M0,50L48,45C96,40,192,30,288,26.7C384,23,480,27,576,35C672,43,768,57,864,56.7C960,57,1056,43,1152,41.7C1248,40,1344,50,1440,45C1536,40,1632,20,1728,20C1824,20,1920,40,2016,55C2112,70,2208,80,2304,75C2400,70,2496,50,2592,45C2688,40,2784,50,2880,50C2976,50,3072,40,3168,45C3264,50,3360,70,3456,78.3C3552,87,3648,83,3744,70C3840,57,3936,33,4032,30C4128,27,4224,43,4320,43.3C4416,43,4512,27,4608,16.7C4704,7,4800,3,4896,6.7C4992,10,5088,20,5184,23.3C5280,27,5376,23,5472,25C5568,27,5664,33,5760,43.3C5856,53,5952,67,6048,66.7C6144,67,6240,53,6336,40C6432,27,6528,13,6624,15C6720,17,6816,33,6864,41.7L6912,50L6912,100L6864,100C6816,100,6720,100,6624,100C6528,100,6432,100,6336,100C6240,100,6144,100,6048,100C5952,100,5856,100,5760,100C5664,100,5568,100,5472,100C5376,100,5280,100,5184,100C5088,100,4992,100,4896,100C4800,100,4704,100,4608,100C4512,100,4416,100,4320,100C4224,100,4128,100,4032,100C3936,100,3840,100,3744,100C3648,100,3552,100,3456,100C3360,100,3264,100,3168,100C3072,100,2976,100,2880,100C2784,100,2688,100,2592,100C2496,100,2400,100,2304,100C2208,100,2112,100,2016,100C1920,100,1824,100,1728,100C1632,100,1536,100,1440,100C1344,100,1248,100,1152,100C1056,100,960,100,864,100C768,100,672,100,576,100C480,100,384,100,288,100C192,100,96,100,48,100L0,100Z"></path></svg>
